<svg width="29" height="48" viewBox="0 0 29 48" fill="none" xmlns="http://www.w3.org/2000/svg">
<rect width="29" height="48" fill="#1E1E1E"/>
<path d="M-1101 -5435C-1101 -5488.57 -1057.57 -5532 -1004 -5532H4466C4519.57 -5532 4563 -5488.57 4563 -5435V1708C4563 1761.57 4519.57 1805 4466 1805H-1004C-1057.57 1805 -1101 1761.57 -1101 1708V-5435Z" fill="#404040"/>
<rect width="1440" height="6541" transform="translate(-700 -5035)" fill="#F5F5F5"/>
<rect x="-602" y="-958" width="682" height="1044" rx="43.2761" fill="#C4C4C4" fill-opacity="0.97"/>
<circle cx="15.3511" cy="24.3511" r="47.3511" fill="#2E2E2E"/>
<mask id="path-5-outside-1_120_155" maskUnits="userSpaceOnUse" x="0.4729" y="0.102051" width="29" height="48" fill="black">
<rect fill="white" x="0.4729" y="0.102051" width="29" height="48"/>
<path d="M6.88773 45.7201L26.8222 25.9951C27.0588 25.7603 27.2268 25.5059 27.3262 25.232C27.4255 24.958 27.4744 24.6645 27.4729 24.3514C27.4729 24.0383 27.424 23.7448 27.3262 23.4708C27.2284 23.1968 27.0604 22.9425 26.8222 22.7076L6.88773 2.92393C6.33563 2.37601 5.64552 2.10205 4.81738 2.10205C3.98924 2.10205 3.27941 2.39558 2.68788 2.98263C2.09636 3.56968 1.80059 4.25458 1.80059 5.03732C1.80059 5.82006 2.09636 6.50495 2.68788 7.09201L20.0788 24.3514L2.68788 41.6108C2.13579 42.1587 1.85975 42.8342 1.85975 43.6373C1.85975 44.4404 2.15551 45.1346 2.74704 45.7201C3.33856 46.3072 4.02868 46.6007 4.81738 46.6007C5.60608 46.6007 6.2962 46.3072 6.88773 45.7201Z"/>
</mask>
<path d="M6.88773 45.7201L26.8222 25.9951C27.0588 25.7603 27.2268 25.5059 27.3262 25.232C27.4255 24.958 27.4744 24.6645 27.4729 24.3514C27.4729 24.0383 27.424 23.7448 27.3262 23.4708C27.2284 23.1968 27.0604 22.9425 26.8222 22.7076L6.88773 2.92393C6.33563 2.37601 5.64552 2.10205 4.81738 2.10205C3.98924 2.10205 3.27941 2.39558 2.68788 2.98263C2.09636 3.56968 1.80059 4.25458 1.80059 5.03732C1.80059 5.82006 2.09636 6.50495 2.68788 7.09201L20.0788 24.3514L2.68788 41.6108C2.13579 42.1587 1.85975 42.8342 1.85975 43.6373C1.85975 44.4404 2.15551 45.1346 2.74704 45.7201C3.33856 46.3072 4.02868 46.6007 4.81738 46.6007C5.60608 46.6007 6.2962 46.3072 6.88773 45.7201Z" fill="#F8F8F8"/>
<path d="M6.88773 45.7201L26.8222 25.9951C27.0588 25.7603 27.2268 25.5059 27.3262 25.232C27.4255 24.958 27.4744 24.6645 27.4729 24.3514C27.4729 24.0383 27.424 23.7448 27.3262 23.4708C27.2284 23.1968 27.0604 22.9425 26.8222 22.7076L6.88773 2.92393C6.33563 2.37601 5.64552 2.10205 4.81738 2.10205C3.98924 2.10205 3.27941 2.39558 2.68788 2.98263C2.09636 3.56968 1.80059 4.25458 1.80059 5.03732C1.80059 5.82006 2.09636 6.50495 2.68788 7.09201L20.0788 24.3514L2.68788 41.6108C2.13579 42.1587 1.85975 42.8342 1.85975 43.6373C1.85975 44.4404 2.15551 45.1346 2.74704 45.7201C3.33856 46.3072 4.02868 46.6007 4.81738 46.6007C5.60608 46.6007 6.2962 46.3072 6.88773 45.7201Z" stroke="#F8F8F8" stroke-width="2.28198" mask="url(#path-5-outside-1_120_155)"/>
<path d="M-1004 -5531H4466V-5533H-1004V-5531ZM4562 -5435V1708H4564V-5435H4562ZM4466 1804H-1004V1806H4466V1804ZM-1100 1708V-5435H-1102V1708H-1100ZM-1004 1804C-1057.02 1804 -1100 1761.02 -1100 1708H-1102C-1102 1762.12 -1058.12 1806 -1004 1806V1804ZM4562 1708C4562 1761.02 4519.02 1804 4466 1804V1806C4520.12 1806 4564 1762.12 4564 1708H4562ZM4466 -5531C4519.02 -5531 4562 -5488.02 4562 -5435H4564C4564 -5489.12 4520.12 -5533 4466 -5533V-5531ZM-1004 -5533C-1058.12 -5533 -1102 -5489.12 -1102 -5435H-1100C-1100 -5488.02 -1057.02 -5531 -1004 -5531V-5533Z" fill="white" fill-opacity="0.1"/>
</svg>
